# xmcd
#
# Track frame offsets: 
#        150
#        16845
#        35798
#        53477
#        74897
#        91804
#        113880
#        134469
#        155511
#        174128
#        195950
#        216095
#
# Disc length: 3139 seconds
#
# Revision: 1
# Processed by: cddbd v1.5.2PL0 Copyright (c) Steve Scherf et al.
# Submitted via: ExactAudioCopy v0.95a5
#
DISCID=9e0c410c
DTITLE=Celetia - k-Celetia
DYEAR=1996
DGENRE=R&B
TTITLE0=Are U Ready
TTITLE1=Missing Your Love
TTITLE2=Work Me Over
TTITLE3=All My Loving
TTITLE4=This Feelings Killing Me
TTITLE5=Be My Honey
TTITLE6=It Rains In My Heart
TTITLE7=Candlelight
TTITLE8=The Way U Make Me Feel
TTITLE9=Up And Down
TTITLE10=Excited
TTITLE11=Gonna Get Down
EXTD=
EXTT0=
EXTT1=
EXTT2=
EXTT3=
EXTT4=
EXTT5=
EXTT6=
EXTT7=
EXTT8=
EXTT9=
EXTT10=
EXTT11=
PLAYORDER=
